<?xml version="1.0" encoding="iso-8859-1"?>
<!-- Generator: Adobe Illustrator 16.0.0, SVG Export Plug-In . SVG Version: 6.00 Build 0)  -->
<!DOCTYPE svg PUBLIC "-//W3C//DTD SVG 1.1//EN" "http://www.w3.org/Graphics/SVG/1.1/DTD/svg11.dtd">
<svg version="1.1" xmlns="http://www.w3.org/2000/svg" xmlns:xlink="http://www.w3.org/1999/xlink" x="0px" y="0px" width="500px"
	 height="500px" viewBox="0 0 500 500" style="enable-background:new 0 0 500 500;" xml:space="preserve">
<g id="_x39_9-interface_-_sidebar_hamburger" style="enable-background:new    ;">
	<g id="_x39_9-interface_-_sidebar_hamburger_1_">
		<g>
			<path d="M391.62,360.346H110.37c-8.63,0-15.624,6.962-15.624,15.606c0,8.632,6.994,15.633,15.624,15.633h281.25
				c8.628,0,15.623-7.001,15.623-15.633C407.243,367.308,400.248,360.346,391.62,360.346z M110.37,141.572h281.25
				c8.628,0,15.623-6.997,15.623-15.614c0-8.644-6.995-15.639-15.623-15.639H110.37c-8.63,0-15.624,6.995-15.624,15.639
				C94.747,134.575,101.74,141.572,110.37,141.572z M391.62,235.327H110.37c-8.63,0-15.624,6.992-15.624,15.637
				c0,8.614,6.994,15.622,15.624,15.622h281.25c8.628,0,15.623-7.008,15.623-15.622C407.243,242.319,400.248,235.327,391.62,235.327
				z"/>
		</g>
	</g>
</g>
<g id="Layer_1">
</g>
</svg>
